<svg xmlns="http://www.w3.org/2000/svg" viewBox="0 0 254 47.6"><defs><style>.a{fill:#488eff;}.b{fill:#205c26;}.c{fill:#3c3b3d;}</style></defs><title>logo</title><path class="a" d="M53.5,37.8a1.6,1.6,0,0,1,1.1,2.7c-1.8,2.2-3.7,4.3-5.5,6.4a1.7,1.7,0,0,1-2.3,0l-5.6-6.4a1.7,1.7,0,0,1,1.6-2.7h3.4A20.3,20.3,0,0,0,31.1,22.6a21.2,21.2,0,0,0-4.4-.5A20.2,20.2,0,0,0,8.9,32.9c-1,1.9-3.8.3-2.8-1.6C11,22.4,21.3,17.2,31.4,19.4a23.6,23.6,0,0,1,18,18.4ZM1.6,47.6A1.6,1.6,0,0,1,.4,44.9l5.5-6.4a1.6,1.6,0,0,1,2.4,0c1.8,2.1,3.7,4.2,5.5,6.4a1.7,1.7,0,0,1-1.6,2.7H8.8A20.3,20.3,0,0,0,23.9,62.8a21.2,21.2,0,0,0,4.4.5A20.2,20.2,0,0,0,46.1,52.5c1-1.9,3.8-.3,2.8,1.6C44,63.1,33.7,68.3,23.6,66A23.7,23.7,0,0,1,5.5,47.6Z" transform="translate(0 -18.9)"/><path class="b" d="M83.5,23.5l-2.2,4.4H77.2V42.5H72.6V27.9H67.5V23.5Z" transform="translate(0 -18.9)"/><path class="b" d="M94.5,42.5H86.9l-1.6-3.3-1.8,3.3H78.7L89,23.5h5.5Zm-4.7-4.3V30.8l-3.9,7.4Z" transform="translate(0 -18.9)"/><path class="b" d="M120.2,42.5h-4.7V28.3l-4.8,14.2H106l-4.8-14.2V42.5H96.5v-19h7.8l4,11.9,4-11.9h7.9Z" transform="translate(0 -18.9)"/><path class="b" d="M137.4,42.5h-7.7L128,39.2l-1.8,3.3h-4.7l10.3-19h5.6Zm-4.8-4.3V30.8l-4,7.4Z" transform="translate(0 -18.9)"/><path class="b" d="M155,42.5h-4.8V40.7L144,30.9V42.4h-4.8V23.5h5.4l5.6,9V23.6H155Z" transform="translate(0 -18.9)"/><path class="b" d="M172.7,33.1a11.2,11.2,0,0,1-.5,3.1,9.6,9.6,0,0,1-1.1,2.8,8.6,8.6,0,0,1-1.8,2,6.5,6.5,0,0,1-2.2,1.1l-2.1.4h-8.2v-19h7.5a8.3,8.3,0,0,1,3.4.7,10.5,10.5,0,0,1,2.7,2,8.3,8.3,0,0,1,1.6,3.1A9.9,9.9,0,0,1,172.7,33.1ZM168,31.9v-.3c-.1-.3-.1-.6-.2-.9l-.5-1a2.3,2.3,0,0,0-.7-1,2.1,2.1,0,0,0-1.5-.7h-3.5V38h2.9C166.8,38,168,36,168,31.9Z" transform="translate(0 -18.9)"/><path class="b" d="M189.8,23.5v19h-8.1a6.2,6.2,0,0,1-2.3-.4,6.9,6.9,0,0,1-1.9-1,9.8,9.8,0,0,1-1.7-1.8,6.1,6.1,0,0,1-1.1-2.1,4.8,4.8,0,0,1-.5-1.7v-12h4.5v9.6a13.6,13.6,0,0,0,.2,2,11.1,11.1,0,0,0,.7,1.6,5.2,5.2,0,0,0,1.1,1,3.5,3.5,0,0,0,1.4.3h3V23.5Z" transform="translate(0 -18.9)"/><path class="b" d="M207.7,23.5l-2.2,4.4h-4.2V42.5h-4.5V27.9h-5V23.5Z" transform="translate(0 -18.9)"/><path class="b" d="M222.7,23.5,220.5,28h-7.2v2.7h7.2v4.5h-7.2V38h8.4v4.5H208.6v-19Z" transform="translate(0 -18.9)"/><path class="b" d="M238.2,23.5,236,28h-6l-.7.2-.8.5-.6.7a2.5,2.5,0,0,0-.4.7,11.6,11.6,0,0,0-.4,1.8c0,4.1,1.2,6.1,3.5,6.1h7.6v4.5h-8.8l-1.3-.3a3.4,3.4,0,0,1-1.9-.9,8,8,0,0,1-1.7-1.5,8.2,8.2,0,0,1-1.2-2,8.3,8.3,0,0,1-.6-2.1,22.8,22.8,0,0,1-.2-2.6,12,12,0,0,1,.5-3.8,9.2,9.2,0,0,1,1.8-3,6.3,6.3,0,0,1,2.6-2,8.4,8.4,0,0,1,3.5-.7Z" transform="translate(0 -18.9)"/><path class="b" d="M254,42.5h-4.5V32.1l-1.8,3.1h-4.3v7.3h-4.3v-19h4.3v7.3h6.2V23.5H254Z" transform="translate(0 -18.9)"/><path d="M79,61H75.3l-4.5-6.9V61H67.5V47.2h7.4a4.1,4.1,0,0,1,1.6.3,4,4,0,0,1,1.2,1,4.4,4.4,0,0,1,.8,1.5,4.7,4.7,0,0,1,.3,1.7,7.6,7.6,0,0,1-.1,1.5,2.2,2.2,0,0,1-.5,1.1,3.9,3.9,0,0,1-.8,1l-1.2.6H76Zm-3.3-9.2a1.9,1.9,0,0,0-.3-1,1.8,1.8,0,0,0-1-.4H70.8v2.8H75l.4-.3.3-.5Z" transform="translate(0 -18.9)"/><path d="M92.8,54.1a8.6,8.6,0,0,1-.5,2.7A6.1,6.1,0,0,1,91,59a7,7,0,0,1-1.9,1.5,7.4,7.4,0,0,1-2.5.5,7.5,7.5,0,0,1-2.6-.5A5.9,5.9,0,0,1,82,59a5.5,5.5,0,0,1-1.2-2.1,7.1,7.1,0,0,1-.6-2.8,8.8,8.8,0,0,1,.6-2.8A5.9,5.9,0,0,1,82,49.1a6,6,0,0,1,2.1-1.4,4.5,4.5,0,0,1,2.5-.5,4.7,4.7,0,0,1,2.6.5A4.9,4.9,0,0,1,91,49.1a6.1,6.1,0,0,1,1.3,2.2A8.7,8.7,0,0,1,92.8,54.1Zm-3.1,0a3.4,3.4,0,0,0-.2-1.5l-.6-1.2-1-.9a2,2,0,0,0-1.3-.2,1.6,1.6,0,0,0-1.2.2l-1.1.8a5.2,5.2,0,0,0-.6,1.3,5.7,5.7,0,0,0,0,3,5.2,5.2,0,0,0,.6,1.3l1.1.8,1.2.2,1.2-.2a2.2,2.2,0,0,0,1-.9,3.4,3.4,0,0,0,.6-1.2A2.1,2.1,0,0,0,89.7,54.1Z" transform="translate(0 -18.9)"/><path d="M105.6,57.2a3.8,3.8,0,0,1-1.1,2.8,3.5,3.5,0,0,1-1.2.7,4.1,4.1,0,0,1-1.6.3H93.9V47.2h8l.8.2h.8l.8.5.7.7.4.9a1.9,1.9,0,0,1,.1.8,3.8,3.8,0,0,1-.4,2.1,2.5,2.5,0,0,1-1.3,1.4A3.6,3.6,0,0,1,105.6,57.2Zm-3.2-5.8a1.1,1.1,0,0,0-.3-.8.9.9,0,0,0-.7-.3H97.3v2.1H102l.2-.3c0-.1.1-.2.1-.3A.6.6,0,0,0,102.4,51.4Zm0,5.3a.4.4,0,0,0-.1-.3c-.1-.2-.1-.3-.2-.4l-.3-.3H98.9l-1.6-2.4v4.6h4.5l.3-.2c.1-.1.1-.3.2-.4A1.3,1.3,0,0,0,102.4,56.7Z" transform="translate(0 -18.9)"/><path d="M119.3,54.1a6.3,6.3,0,0,1-.4,2.7,7.8,7.8,0,0,1-1.2,2.2,6.3,6.3,0,0,1-7.1,1.5,9.5,9.5,0,0,1-2-1.5,7.4,7.4,0,0,1-1.3-2.1,10.6,10.6,0,0,1,0-5.6,8.3,8.3,0,0,1,1.4-2.2,6.2,6.2,0,0,1,1.9-1.4,4.8,4.8,0,0,1,2.6-.5,4.2,4.2,0,0,1,2.5.5,4.8,4.8,0,0,1,2,1.4,9.4,9.4,0,0,1,1.2,2.2A6.6,6.6,0,0,1,119.3,54.1Zm-3,0a6.1,6.1,0,0,0-.2-1.5,2.3,2.3,0,0,0-.6-1.2l-1-.9a1.9,1.9,0,0,0-1.3-.2,2,2,0,0,0-1.3.2l-1,.8a5,5,0,0,0-.5,1.3,3.9,3.9,0,0,0,0,3,3.1,3.1,0,0,0,.6,1.3,2.9,2.9,0,0,0,2.2,1l1.3-.2,1-.9a3.4,3.4,0,0,0,.6-1.2A3.9,3.9,0,0,0,116.3,54.1Z" transform="translate(0 -18.9)"/><path d="M131.3,47.2l-1.6,3.1h-3V61h-3.3V50.3h-3.7V47.2Z" transform="translate(0 -18.9)"/><path d="M152,54.1a8.5,8.5,0,0,1-.3,2.3,7,7,0,0,1-.8,2l-1.3,1.5-1.7.8-1.5.3h-5.9V47.2h5.4a4.3,4.3,0,0,1,2.5.5,5.2,5.2,0,0,1,1.9,1.4,5.3,5.3,0,0,1,1.2,2.2A9.2,9.2,0,0,1,152,54.1Zm-3.4-.8V53a1.4,1.4,0,0,0-.2-.6,1.9,1.9,0,0,0-.2-.7l-.6-.7a1.4,1.4,0,0,0-1.1-.6H144v7.3h2.1C147.8,57.7,148.6,56.2,148.6,53.3Z" transform="translate(0 -18.9)"/><path d="M162.4,61h-5.6l-1.2-2.5L154.3,61h-3.4l7.4-13.8h4.1Zm-3.5-3.2V52.4L156,57.8Z" transform="translate(0 -18.9)"/><path d="M175.1,56.6a4.8,4.8,0,0,1-.3,1.8,2.9,2.9,0,0,1-.8,1.4,2.7,2.7,0,0,1-1.2.9,4.7,4.7,0,0,1-1.7.3h-7.4V57.9h6.9a1.7,1.7,0,0,0,1-.3.8.8,0,0,0,.3-.8c.1-.3-.1-.5-.2-.7l-1.1-.4h-3.8l-1.1-.3-.8-.6-.6-.9a5,5,0,0,1-.6-2.4,5.7,5.7,0,0,1,.3-1.8,6.4,6.4,0,0,1,.8-1.4l1.2-.8a4.5,4.5,0,0,1,1.6-.3h7.5l-1.5,3.2H168a1,1,0,0,0-1.2.8,1,1,0,0,0,.4,1,1.1,1.1,0,0,0,.8.3h3.1C173.8,52.5,175.1,53.9,175.1,56.6Z" transform="translate(0 -18.9)"/><path d="M187.1,61h-3.2V53.5l-1.4,2.1h-3.2V61h-3.1V47.2h3.1v5.3h4.6V47.2h3.2Z" transform="translate(0 -18.9)"/><path class="c" d="M203.2,56.7h-6.9V54.2h6.9Z" transform="translate(0 -18.9)"/><path class="c" d="M221.2,55.5a7.8,7.8,0,0,1-.4,2.2,5.9,5.9,0,0,1-1,1.7,3.3,3.3,0,0,1-1.5,1.1,4.6,4.6,0,0,1-2.1.5,6.5,6.5,0,0,1-2-.4,4.4,4.4,0,0,1-1.5-1.2,4.2,4.2,0,0,1-1.1-1.7,7.3,7.3,0,0,1-.3-2.2,7.8,7.8,0,0,1,.3-2.2,5,5,0,0,1,1.1-1.7,4,4,0,0,1,1.6-1.2,5.2,5.2,0,0,1,4,0,4.4,4.4,0,0,1,1.5,1.2,4.8,4.8,0,0,1,1,1.7A7.8,7.8,0,0,1,221.2,55.5Zm-2.5,0a4.9,4.9,0,0,0-.1-1.2,2.6,2.6,0,0,0-.5-.9l-.8-.7-1-.2-1,.2-.8.6a3.1,3.1,0,0,0-.5,1,5,5,0,0,0-.2,1.2,3.7,3.7,0,0,0,.2,1.2,3.1,3.1,0,0,0,.5,1,1.6,1.6,0,0,0,.8.6,1.6,1.6,0,0,0,.9.3,2.3,2.3,0,0,0,1.1-.3c.3-.1.5-.4.8-.6a9.3,9.3,0,0,0,.5-1A4.9,4.9,0,0,0,218.7,55.5Z" transform="translate(0 -18.9)"/><path class="c" d="M230.6,50l-1.3,2.6h-2.4V61h-2.6V52.6h-2.9V50Z" transform="translate(0 -18.9)"/><path class="c" d="M238.1,61h-2.7l-.7-2H233l-.9-1.8L230.8,61h-2.7l3.7-11h2.7Zm-4.2-4.6-.8-2.3-.7,2.3Z" transform="translate(0 -18.9)"/></svg>