<svg xmlns="http://www.w3.org/2000/svg" viewBox="0 0 259.5 52.1"><defs><style>.a{isolation:isolate;}</style></defs><title>image</title><g class="a"><path d="M22.2,20.1l-3.1,6.1H13.4V46.5H7.1V26.2H0V20.1Z" transform="translate(0 -20.1)"/><path d="M37.6,46.5H27l-2.3-4.6-2.5,4.6H15.6L29.9,20.1h7.7Zm-6.6-6V30.2L25.5,40.5Z" transform="translate(0 -20.1)"/><path d="M73.3,46.5H66.7V26.7L60.1,46.5H53.5L46.9,26.7V46.5H40.3V20.1H51.2l5.6,16.5,5.5-16.5h11Z" transform="translate(0 -20.1)"/><path d="M97.2,46.5H86.5l-2.3-4.6-2.5,4.6H75.1L89.4,20.1h7.8Zm-6.6-6V30.2L85,40.5Z" transform="translate(0 -20.1)"/><path d="M121.7,46.5h-6.6V44l-8.7-13.6v16H99.8V20.1h7.5l7.8,12.5V20.2h6.6Z" transform="translate(0 -20.1)"/><path d="M146.3,33.4a15.6,15.6,0,0,1-.6,4.4,14.5,14.5,0,0,1-1.6,3.8,9.7,9.7,0,0,1-2.5,2.8,7.7,7.7,0,0,1-3.1,1.6l-2.9.5H124.3V20.1h10.3a11.2,11.2,0,0,1,4.8,1,14.1,14.1,0,0,1,3.7,2.7,11.8,11.8,0,0,1,2.3,4.3A15.1,15.1,0,0,1,146.3,33.4Zm-6.5-1.6v-.5a10.3,10.3,0,0,0-.3-1.2,5.3,5.3,0,0,0-.6-1.4,3.6,3.6,0,0,0-1.1-1.4,2.9,2.9,0,0,0-2-1h-4.9v14H135C138.2,40.3,139.8,37.5,139.8,31.8Z" transform="translate(0 -20.1)"/><path d="M170.2,20.1V46.5H158.9a11.3,11.3,0,0,1-3.2-.5,11.7,11.7,0,0,1-2.7-1.5,13.1,13.1,0,0,1-2.3-2.4,10.8,10.8,0,0,1-1.6-3,7,7,0,0,1-.6-2.3V20.1h6.2V33.4a12,12,0,0,0,.3,2.8,9,9,0,0,0,1,2.2,4,4,0,0,0,1.5,1.4,4.6,4.6,0,0,0,2,.5h4.1V20.1Z" transform="translate(0 -20.1)"/><path d="M195,20.1l-3,6.1h-5.8V46.5h-6.3V26.2h-7V20.1Z" transform="translate(0 -20.1)"/><path d="M215.9,20.1l-3,6.2H202.8v3.8h10.1v6.2H202.8v4h11.7v6.2H196.3V20.1Z" transform="translate(0 -20.1)"/><path d="M237.5,20.1l-3,6.2h-8.4a1.9,1.9,0,0,0-1,.3l-1.1.7a3.9,3.9,0,0,0-.8,1,2.7,2.7,0,0,0-.6,1,24.5,24.5,0,0,0-.5,2.5c0,5.7,1.6,8.5,4.8,8.5h10.6v6.2H225.2l-1.8-.4a6.8,6.8,0,0,1-2.6-1.2,9.3,9.3,0,0,1-2.3-2.1,11.7,11.7,0,0,1-1.7-2.8,8.6,8.6,0,0,1-.9-3,30.5,30.5,0,0,1-.3-3.5,18.5,18.5,0,0,1,.8-5.4,14.4,14.4,0,0,1,2.4-4.2,9.8,9.8,0,0,1,3.7-2.7,10.6,10.6,0,0,1,4.8-1Z" transform="translate(0 -20.1)"/><path d="M259.5,46.5h-6.2V32.1l-2.5,4.3h-6.1V46.5h-6V20.1h6.1V30.2h8.6V20.1h6.1Z" transform="translate(0 -20.1)"/></g><g class="a"><path d="M16,72.2H10.8L4.5,62.6v9.6H0V53H10.3a5.4,5.4,0,0,1,2.2.5,7.5,7.5,0,0,1,1.7,1.4,6.4,6.4,0,0,1,1.1,2,6.7,6.7,0,0,1,.4,2.4,6.8,6.8,0,0,1-.2,2.1,4.4,4.4,0,0,1-.6,1.6,4.9,4.9,0,0,1-1.2,1.3,8.3,8.3,0,0,1-1.6.9h-.3ZM11.4,59.5a2.2,2.2,0,0,0-.5-1.4,1.8,1.8,0,0,0-1.3-.6H4.5v3.9H9.8a.7.7,0,0,0,.6-.2l.5-.4a2.5,2.5,0,0,0,.4-.7A1.3,1.3,0,0,0,11.4,59.5Z" transform="translate(0 -20.1)"/><path d="M35.1,62.6a11.2,11.2,0,0,1-.6,3.8,8.7,8.7,0,0,1-1.8,3.1,7.9,7.9,0,0,1-2.7,2,8.1,8.1,0,0,1-3.5.7,8.6,8.6,0,0,1-3.6-.7,6.8,6.8,0,0,1-2.7-2,7.5,7.5,0,0,1-1.8-3,10,10,0,0,1-.7-3.9,12.3,12.3,0,0,1,.7-3.9,9.2,9.2,0,0,1,1.8-3,9.5,9.5,0,0,1,2.8-2,8.6,8.6,0,0,1,3.6-.7,8.4,8.4,0,0,1,3.5.7,8.6,8.6,0,0,1,2.6,2,8.7,8.7,0,0,1,1.8,3.1A11.2,11.2,0,0,1,35.1,62.6Zm-4.2,0a7.6,7.6,0,0,0-.3-2.1,11.4,11.4,0,0,0-.9-1.6,5.3,5.3,0,0,0-1.4-1.2,3.4,3.4,0,0,0-1.8-.4,3.3,3.3,0,0,0-1.7.4,3.8,3.8,0,0,0-1.4,1.1,5.6,5.6,0,0,0-.9,1.7,7.8,7.8,0,0,0-.3,2.2,7.6,7.6,0,0,0,.3,2.1,5.6,5.6,0,0,0,.9,1.7,5.3,5.3,0,0,0,1.4,1.1,4.3,4.3,0,0,0,1.7.4,4.7,4.7,0,0,0,1.7-.4,3.3,3.3,0,0,0,1.4-1.2,4.6,4.6,0,0,0,.9-1.7A4.6,4.6,0,0,0,30.9,62.6Z" transform="translate(0 -20.1)"/><path d="M53,67a7.2,7.2,0,0,1-.4,2.2,6.4,6.4,0,0,1-1.1,1.6,3.7,3.7,0,0,1-1.7,1,5.4,5.4,0,0,1-2.2.4H36.7V53H47.8l1.2.3h1.1a3.4,3.4,0,0,1,1.1.7l.9,1,.6,1.2a5,5,0,0,1,.2,1.2,6.8,6.8,0,0,1-.6,2.9,3.7,3.7,0,0,1-1.8,1.9A5.3,5.3,0,0,1,53,67Zm-4.5-8.1a1.5,1.5,0,0,0-.4-1.1,1.4,1.4,0,0,0-1-.5H41.4v3h6.5l.3-.4a.8.8,0,0,0,.2-.4A1.1,1.1,0,0,0,48.5,58.9Zm0,7.4a1.1,1.1,0,0,0-.1-.5c-.1-.2-.1-.4-.3-.5a.8.8,0,0,0-.4-.4H43.6l-2.2-3.4v6.5h6.3l.4-.4c.2-.1.2-.3.3-.5A1.3,1.3,0,0,0,48.5,66.3Z" transform="translate(0 -20.1)"/><path d="M72.1,62.6a11.2,11.2,0,0,1-.6,3.8,10.3,10.3,0,0,1-1.7,3.1,10.5,10.5,0,0,1-2.7,2,8.6,8.6,0,0,1-3.6.7,7.8,7.8,0,0,1-3.5-.7,8,8,0,0,1-2.8-2,8.9,8.9,0,0,1-1.8-3,13,13,0,0,1,0-7.8,11.7,11.7,0,0,1,1.9-3,9,9,0,0,1,2.7-2,8.6,8.6,0,0,1,3.6-.7,7.8,7.8,0,0,1,3.5.7,7.9,7.9,0,0,1,2.7,2,10.3,10.3,0,0,1,1.7,3.1A11.2,11.2,0,0,1,72.1,62.6Zm-4.2,0a7.6,7.6,0,0,0-.3-2.1,4.2,4.2,0,0,0-.9-1.6,4.9,4.9,0,0,0-1.3-1.2,3.9,3.9,0,0,0-1.8-.4,3.4,3.4,0,0,0-1.8.4,4.9,4.9,0,0,0-1.4,1.1,8.9,8.9,0,0,0-.8,1.7,7.8,7.8,0,0,0-.3,2.2,7.6,7.6,0,0,0,.3,2.1,5.6,5.6,0,0,0,.9,1.7,3.7,3.7,0,0,0,3,1.5,4.8,4.8,0,0,0,1.8-.4,5.3,5.3,0,0,0,1.4-1.2,4.6,4.6,0,0,0,.9-1.7A6.6,6.6,0,0,0,67.9,62.6Z" transform="translate(0 -20.1)"/><path d="M88.7,53l-2.2,4.4H82.3V72.2H77.7V57.4H72.6V53Z" transform="translate(0 -20.1)"/><path d="M117.6,62.7a11.3,11.3,0,0,1-.5,3.2,8.1,8.1,0,0,1-1.1,2.7,9.1,9.1,0,0,1-1.8,2.1,7,7,0,0,1-2.3,1.1l-2.1.4h-8.2V53h7.5a7.7,7.7,0,0,1,3.4.7,7.9,7.9,0,0,1,2.7,2,8.5,8.5,0,0,1,1.7,3.1A12.3,12.3,0,0,1,117.6,62.7Zm-4.8-1.2v-.4a3.1,3.1,0,0,0-.2-.8,4.2,4.2,0,0,0-.4-1,3.9,3.9,0,0,0-.8-1,2.2,2.2,0,0,0-1.5-.8h-3.5V67.7h2.9C111.7,67.7,112.8,65.6,112.8,61.5Z" transform="translate(0 -20.1)"/><path d="M132,72.2h-7.8l-1.6-3.4-1.8,3.4H116L126.3,53H132Zm-4.8-4.4V60.3l-4.1,7.5Z" transform="translate(0 -20.1)"/><path d="M149.7,66.2a6.9,6.9,0,0,1-.4,2.5,5.2,5.2,0,0,1-1.1,1.9,4.3,4.3,0,0,1-1.7,1.2,5.6,5.6,0,0,1-2.3.4H133.9V67.9h9.6a2.5,2.5,0,0,0,1.3-.4,1.2,1.2,0,0,0,.5-1.1,1.3,1.3,0,0,0-.4-1,4.6,4.6,0,0,0-1.4-.5h-3.1l-2.2-.2-1.6-.4-1.1-.8-.8-1.2a7.4,7.4,0,0,1-.8-3.4,6.9,6.9,0,0,1,.4-2.5,5.2,5.2,0,0,1,1.1-1.9,4.3,4.3,0,0,1,1.7-1.2,5.4,5.4,0,0,1,2.2-.4h10.4l-2.1,4.5h-7.8a1.4,1.4,0,0,0-1.1,2.5,1.5,1.5,0,0,0,1.1.4h4.4C147.9,60.4,149.7,62.4,149.7,66.2Z" transform="translate(0 -20.1)"/><path d="M166.4,72.2h-4.5V61.8l-1.9,3h-4.4v7.4h-4.4V53h4.4v7.4h6.3V53h4.5Z" transform="translate(0 -20.1)"/></g></svg>